<svg xmlns="http://www.w3.org/2000/svg" version="1.1" xmlns:xlink="http://www.w3.org/1999/xlink" xmlns:svgjs="http://svgjs.dev/svgjs" width="1000" height="131" viewBox="0 0 1000 131"><g transform="matrix(1,0,0,1,-0.6060492578538401,-0.023336511168409402)"><svg viewBox="0 0 396 52" data-background-color="#232323" preserveAspectRatio="xMidYMid meet" height="131" width="1000" xmlns="http://www.w3.org/2000/svg" xmlns:xlink="http://www.w3.org/1999/xlink"><g id="tight-bounds" transform="matrix(1,0,0,1,0.23999550611011955,0.009263347944710176)"><svg viewBox="0 0 395.52 51.981473304110565" height="51.981473304110565" width="395.52"><g><svg viewBox="0 0 433.9677967191466 57.034499999999994" height="51.981473304110565" width="395.52"><g><svg viewBox="0 0 433.9677967191466 57.034499999999994" height="57.034499999999994" width="433.9677967191466"><g id="textblocktransform"><svg viewBox="0 0 433.9677967191466 57.034499999999994" height="57.034499999999994" width="433.9677967191466" id="textblock"><g><svg viewBox="0 0 433.9677967191466 57.034499999999994" height="57.034499999999994" width="433.9677967191466"><g><svg><g></g><g></g></svg></g><g><svg><g><svg></svg></g><g></g></svg></g><g id="text-0"><svg viewBox="0 0 433.9677967191466 57.034499999999994" height="57.034499999999994" width="433.9677967191466"><g transform="matrix(1,0,0,1,0,10.892249999999997)"><svg width="115.45000000000002" viewBox="4.349999904632568 -35.25 115.44000244140625 35.25" height="35.25" data-palette-color="#f0f0f0"><path d="M26.65 0L4.35 0 4.35-35.25 26.65-35.25 26.65-31.85 8.4-31.85 8.4-19.6 25.65-19.6 25.65-16.2 8.4-16.2 8.4-3.4 26.65-3.4 26.65 0ZM56.25-32.25L36.05-3.45 56.75-3.45 56.75 0 31.35 0 31.35-3.05 51.5-31.8 31.35-31.8 31.35-35.25 56.25-35.25 56.25-32.25ZM85.25 0L62.95 0 62.95-35.25 85.25-35.25 85.25-31.85 67-31.85 67-19.6 84.25-19.6 84.25-16.2 67-16.2 67-3.4 85.25-3.4 85.25 0ZM113.64-11.5L119.79 0 115.29 0 109.29-11.3Q108.19-13.35 106.72-14.13 105.24-14.9 102.69-14.9L102.69-14.9 96.09-14.9 96.09 0 92.04 0 92.04-35.25 106.54-35.25Q112.29-35.25 115.32-32.7 118.34-30.15 118.34-25.2L118.34-25.2Q118.34-21.1 116.02-18.57 113.69-16.05 109.39-15.4L109.39-15.4Q110.74-15 111.77-14.05 112.79-13.1 113.64-11.5L113.64-11.5ZM96.09-18.3L106.19-18.3Q110.29-18.3 112.32-20 114.34-21.7 114.34-25.15L114.34-25.15Q114.34-28.55 112.34-30.2 110.34-31.85 106.19-31.85L106.19-31.85 96.09-31.85 96.09-18.3Z" opacity="1" transform="matrix(1,0,0,1,0,0)" fill="#f0f0f0" class="undefined-p-0"></path></svg></g><g><svg xmlns="http://www.w3.org/2000/svg" xmlns:xlink="http://www.w3.org/1999/xlink" version="1.1" x="128.9155" y="0" viewBox="0 0.03399944305419922 99.73999786376953 68.46600341796875" enable-background="new 0 0 100 68.5" xml:space="preserve" width="83.08679671914655" height="57.034499999999994" class="icon-s-0" data-fill-palette-color="accent" id="s-0"><g fill="#f0f0f0" data-fill-palette-color="accent"><polygon points="0,29.927 57.699,30.812 65.415,16.822 74.837,11.354 82.088,20.323 86.169,35.359 87.353,35.359 82.962,18.839    75.407,10.063 18.938,10.643 8.766,16.207  " fill="#f0f0f0" data-fill-palette-color="accent"></polygon><path d="M86.166 64.677l13.574 2.536V11.679c0 0-0.301-11.645-10.972-11.645-10.669 0-10.785 11.679-10.785 11.679l5.746 6.552 5.062 18.242h-2.524L86.166 64.677z" fill="#f0f0f0" data-fill-palette-color="accent"></path><g fill="#f0f0f0" data-fill-palette-color="accent"><rect x="64.497" y="36.544" width="1.809" height="5.233" fill="#f0f0f0" data-fill-palette-color="accent"></rect><path d="M30.084 47.598c-5.429 0-6.687 4.346-6.687 4.346v1l13.166 2.447 0.011-3.347C36.574 52.044 35.51 47.742 30.084 47.598z" fill="#f0f0f0" data-fill-palette-color="accent"></path><path d="M81.108 20.698l-6.52-8.266-8.153 4.93-8.444 14.551v-0.015l-55.8-0.857v17.888l19.931 3.771 0.098-7.061 7.887 0.11L38 45.86l-0.134 9.82 19.018 3.599 28.382 5.163V35.276L81.108 20.698zM67.202 48.341H63.6V35.645h3.603V48.341z" fill="#f0f0f0" data-fill-palette-color="accent"></path><rect x="64.497" y="42.207" width="1.809" height="5.229" fill="#f0f0f0" data-fill-palette-color="accent"></rect></g><polygon points="0,50.167 99.707,68.48 0,68.5  " fill="#f0f0f0" data-fill-palette-color="accent"></polygon></g></svg></g><g transform="matrix(1,0,0,1,225.46779671914655,10.892249999999997)"><svg width="208.5" viewBox="4.349999904632568 -35.25 208.489990234375 35.25" height="35.25" data-palette-color="#f0f0f0"><path d="M8.4 0L4.35 0 4.35-35.25 26.15-35.25 26.15-31.8 8.4-31.8 8.4-19.65 25.15-19.65 25.15-16.2 8.4-16.2 8.4 0ZM60.2 0L56.05 0 52.15-9.05 33.75-9.05 29.85 0 25.65 0 41.15-35.25 44.7-35.25 60.2 0ZM42.95-30.5L35.2-12.45 50.7-12.45 42.95-30.5ZM87.05-11.5L93.19 0 88.69 0 82.69-11.3Q81.59-13.35 80.12-14.13 78.64-14.9 76.09-14.9L76.09-14.9 69.5-14.9 69.5 0 65.44 0 65.44-35.25 79.94-35.25Q85.69-35.25 88.72-32.7 91.75-30.15 91.75-25.2L91.75-25.2Q91.75-21.1 89.42-18.57 87.09-16.05 82.8-15.4L82.8-15.4Q84.14-15 85.17-14.05 86.19-13.1 87.05-11.5L87.05-11.5ZM69.5-18.3L79.59-18.3Q83.69-18.3 85.72-20 87.75-21.7 87.75-25.15L87.75-25.15Q87.75-28.55 85.75-30.2 83.75-31.85 79.59-31.85L79.59-31.85 69.5-31.85 69.5-18.3ZM116.49-9.7L129.69-35.25 133.04-35.25 133.04 0 129.29 0 129.34-27.3 117.89-5.6 114.99-5.6 103.49-27.1 103.54 0 99.74 0 99.74-35.25 103.14-35.25 116.49-9.7ZM167.34 0L163.19 0 163.19-31.75 150.94-31.75 150.94-35.25 179.64-35.25 179.64-31.75 167.34-31.75 167.34 0ZM208.99-6.9L208.99-35.25 212.84-35.25 212.84 0 209.69 0 188.44-28.35 188.44 0 184.59 0 184.59-35.25 187.74-35.25 208.99-6.9Z" opacity="1" transform="matrix(1,0,0,1,0,0)" fill="#f0f0f0" class="undefined-p-1"></path></svg></g></svg></g></svg></g></svg></g></svg></g></svg></g><defs></defs></svg><rect width="395.52" height="51.981473304110565" fill="none" stroke="none" visibility="hidden"></rect></g></svg></g></svg>